<svg width="15" height="15" xmlns="http://www.w3.org/2000/svg"><!--!Font Awesome Free 6.5.2 by @fontawesome - https://fontawesome.com License - https://fontawesome.com/license/free Copyright 2024 Fonticons, Inc.--><path d="m14.587 4.16-1.35 1.35a.353.353 0 0 1-.5 0L9.485 2.258a.353.353 0 0 1 0-.496L10.838.41a1.41 1.41 0 0 1 1.99 0l1.759 1.76a1.404 1.404 0 0 1 0 1.99zM8.325 2.923.63 10.616l-.62 3.56a.705.705 0 0 0 .815.814l3.558-.626 7.696-7.692a.353.353 0 0 0 0-.498L8.828 2.922a.356.356 0 0 0-.501 0zM3.633 9.955a.408.408 0 0 1 0-.58l4.514-4.51a.408.408 0 0 1 .579 0 .408.408 0 0 1 0 .578l-4.51 4.512a.408.408 0 0 1-.581 0zM2.577 12.42h1.407v1.064l-1.89.33-.912-.91.331-1.89h1.065z" style="fill:#ac00e6;fill-opacity:1;stroke-width:.0293002"/></svg>